<?xml version="1.0" encoding="iso-8859-1"?>
<!-- Generator: Adobe Illustrator 19.0.0, SVG Export Plug-In . SVG Version: 6.00 Build 0)  -->
<svg version="1.1" id="Capa_1" xmlns="http://www.w3.org/2000/svg" xmlns:xlink="http://www.w3.org/1999/xlink" x="0px" y="0px"
	 viewBox="0 0 430 430" style="enable-background:new 0 0 430 430;" xml:space="preserve">
<g id="XMLID_2_">
	<path id="XMLID_900_" d="M430,200h-90.903C332.254,143.041,286.959,97.746,230,90.903V60.716
		c35.717,3.408,68.855,18.956,94.56,44.642l21.205-21.221C314.391,52.785,273.735,34.094,230,30.606V0h-30v30.61
		C109.928,37.873,37.873,109.928,30.61,200H0v30h30.61c7.263,90.072,79.317,162.127,169.39,169.39V430h30v-30.61
		c90.072-7.263,162.127-79.317,169.39-169.39H430V200z M245.838,214.819c3.115,1.86,5.781,4.198,8.002,7.013
		c2.215,2.818,3.924,6.056,5.123,9.711c1.197,3.657,1.799,7.582,1.799,11.777c0,5.635-1.141,10.697-3.418,15.193
		c-2.277,4.494-5.545,8.33-9.799,11.506c-4.256,3.176-9.381,5.635-15.373,7.373c-5.996,1.736-12.707,2.607-20.139,2.607
		c-18.223,0-32.486-5.335-42.795-16.004l15.465-20.497c3.236,3.357,6.922,5.905,11.057,7.642c4.137,1.739,9.082,2.607,14.834,2.607
		c13.547,0,20.32-4.973,20.32-14.924c0-5.395-2.01-9.468-6.023-12.227c-4.018-2.758-10.34-4.137-18.971-4.137h-5.395v-20.677h5.934
		c6.713,0,11.957-1.376,15.732-4.136c3.777-2.757,5.664-6.411,5.664-10.969c0-3.955-1.379-6.95-4.135-8.989
		c-2.76-2.038-6.414-3.058-10.969-3.058c-4.916,0-9.381,1.17-13.395,3.508c-4.018,2.336-7.404,5.662-10.16,9.979l-18.16-20.857
		c1.916-2.52,4.434-4.855,7.551-7.014c3.117-2.158,6.654-3.984,10.609-5.484c3.955-1.498,8.209-2.666,12.768-3.506
		c4.555-0.837,9.229-1.258,14.025-1.258c6.352,0,12.164,0.749,17.441,2.247c5.273,1.5,9.768,3.658,13.484,6.473
		c3.715,2.817,6.592,6.175,8.631,10.07c2.037,3.896,3.057,8.241,3.057,13.035c0,3.597-0.57,7.013-1.707,10.249
		c-1.141,3.236-2.729,6.176-4.766,8.811c-2.039,2.639-4.467,4.826-7.281,6.563c-2.818,1.74-5.906,2.908-9.262,3.506
		C239.303,211.674,242.719,212.963,245.838,214.819z M200,60.729v30.175C143.041,97.746,97.746,143.041,90.903,200H60.729
		C67.821,126.482,126.482,67.821,200,60.729z M60.729,230h30.175C97.746,286.959,143.041,332.254,200,339.097v30.175
		C126.482,362.179,67.821,303.518,60.729,230z M230,369.272v-30.175c56.959-6.843,102.254-52.138,109.097-109.097h30.175
		C362.179,303.518,303.518,362.179,230,369.272z"/>
</g>
<g>
</g>
<g>
</g>
<g>
</g>
<g>
</g>
<g>
</g>
<g>
</g>
<g>
</g>
<g>
</g>
<g>
</g>
<g>
</g>
<g>
</g>
<g>
</g>
<g>
</g>
<g>
</g>
<g>
</g>
</svg>
