<?xml version="1.0" encoding="utf-8"?>
<!-- Generator: Adobe Illustrator 19.0.0, SVG Export Plug-In . SVG Version: 6.00 Build 0)  -->
<svg version="1.1" id="Capa_1" xmlns="http://www.w3.org/2000/svg" xmlns:xlink="http://www.w3.org/1999/xlink" x="0px" y="0px"
	 width="200px" height="153px" viewBox="0 0 200 153" style="enable-background:new 0 0 200 153;" xml:space="preserve">
<style type="text/css">
	.st0{fill:none;}
	.st1{fill:#33B7C3;}
	.st2{fill:#E5007E;}
	.st3{fill:#941B80;}
	.st4{fill:#333333;}
	.st5{fill:#868686;}
	.st6{fill:#1D1D1B;}
</style>
<g id="XMLID_143_">
	<g id="XMLID_224_">
		<path id="XMLID_235_" class="st0" d="M105.37,36.11c-1.32-3.18-2.52-6.62-3.58-10.33h-0.26c-0.71,2.74-1.9,6.18-3.58,10.33
			l-8.34,20.66h8.95h15.15l-7.65-18.94v0L105.37,36.11z"/>
		<path id="XMLID_233_" class="st0" d="M101.96,38.66c-1.32-3.18-2.52-6.62-3.58-10.33h-0.26c-0.71,2.74-1.9,6.18-3.58,10.33
			L86.2,59.32h8.95h15.15l-7.65-18.94v0L101.96,38.66z"/>
		<g id="XMLID_5_">
			<path id="XMLID_6_" class="st0" d="M97.55,55.91l1.01-2.56h10.71l-5.94-14.7l-0.68,1.72l-0.69-1.72
				c-0.87-2.1-1.68-4.32-2.44-6.64c-0.47,1.29-0.98,2.63-1.57,4.09l-8.34,20.66h5.21l0.34-0.85H97.55z"/>
			<polygon id="XMLID_12_" class="st1" points="110.75,26 135.72,85.41 140.2,85.41 112.22,18.86 111.53,20.61 112.22,22.27 			"/>
			<polygon id="XMLID_13_" class="st1" points="97.55,55.91 110.31,55.91 109.28,53.36 98.56,53.36 			"/>
			<polygon id="XMLID_14_" class="st1" points="73.76,88.82 76.1,88.82 84.17,69.52 81.83,69.52 			"/>
			<polygon id="XMLID_15_" class="st1" points="108.12,23.17 108.82,21.42 110.05,24.35 111.53,20.61 104.18,3.13 99.54,3.13 
				98.47,5.68 100.77,5.68 			"/>
			<path id="XMLID_16_" class="st1" d="M97.95,36.11c0.59-1.46,1.1-2.8,1.57-4.09c-0.39-1.2-0.77-2.42-1.13-3.69h-0.26
				c-0.71,2.74-1.9,6.18-3.58,10.33L86.2,59.32h7.6l1.01-2.56h-5.21L97.95,36.11z"/>
			<polygon id="XMLID_17_" class="st1" points="92.13,66.96 94.53,66.96 94.86,66.11 92.47,66.11 			"/>
			<polygon id="XMLID_18_" class="st1" points="110.75,26 112.22,22.27 111.53,20.61 110.05,24.35 			"/>
			<polygon id="XMLID_19_" class="st2" points="95.16,55.91 94.82,56.77 97.21,56.77 97.55,55.91 			"/>
			<path id="XMLID_20_" class="st2" d="M105.37,36.11c-0.17-0.42-0.34-0.86-0.51-1.29l-1.52,3.84l5.94,14.7h4.44l-6.97-17.26
				l-0.68,1.72L105.37,36.11z"/>
			<polygon id="XMLID_21_" class="st2" points="127.22,85.41 118.09,63.56 95.87,63.56 94.86,66.11 114.68,66.11 123.82,87.96 
				136.8,87.96 135.72,85.41 			"/>
			<polygon id="XMLID_22_" class="st3" points="106.75,36.1 113.71,53.36 109.28,53.36 110.31,55.91 97.55,55.91 97.21,56.77 
				98.56,56.77 95.87,63.56 118.09,63.56 127.22,85.41 135.72,85.41 110.75,26 			"/>
			<polygon id="XMLID_23_" class="st3" points="94.53,63.56 97.21,56.77 94.82,56.77 93.81,59.32 95.16,59.32 92.47,66.11 
				94.86,66.11 95.87,63.56 			"/>
			<path id="XMLID_28_" class="st2" d="M104.86,34.82c0.17,0.43,0.34,0.87,0.51,1.29l0.69,1.72l0.68-1.72l-0.68-1.69l3.99-10.07
				l-1.23-2.93l-0.69,1.75l0.69,1.65L104.86,34.82z"/>
			<polygon id="XMLID_29_" class="st2" points="106.75,36.1 110.75,26 110.05,24.35 106.06,34.42 			"/>
			<polygon id="XMLID_30_" class="st2" points="97.21,56.77 94.53,63.56 95.87,63.56 98.56,56.77 			"/>
			<path id="XMLID_31_" class="st2" d="M102.66,40.38l0.68-1.72l-0.68-1.69l1.54-3.88c-0.86-2.32-1.66-4.75-2.4-7.32h-0.26
				c-0.46,1.77-1.14,3.88-2.01,6.24c0.76,2.33,1.57,4.55,2.44,6.64L102.66,40.38z"/>
			<polygon id="XMLID_32_" class="st2" points="84.17,69.52 91.12,69.52 92.13,66.96 85.24,66.96 			"/>
			<polygon id="XMLID_33_" class="st2" points="98.47,5.68 96.14,5.68 60.11,91.37 72.7,91.37 73.76,88.82 63.52,88.82 			"/>
			<path id="XMLID_34_" class="st3" d="M91.12,66.11l2.69-6.79h-7.6l8.34-20.66c1.68-4.15,2.87-7.59,3.58-10.33h0.26
				c0.36,1.26,0.74,2.48,1.13,3.69c0.87-2.37,1.55-4.47,2.01-6.24h0.26c0.73,2.57,1.54,5,2.4,7.32l3.93-9.93l-7.35-17.49h-2.3
				L63.52,88.82h10.24l8.07-19.3h2.34l1.07-2.56h6.89l0.34-0.85H91.12z"/>
			<path id="XMLID_35_" class="st2" d="M103.34,38.66l1.52-3.84c-0.23-0.57-0.45-1.14-0.67-1.72l-1.54,3.88L103.34,38.66z"/>
			<path id="XMLID_36_" class="st2" d="M108.82,24.82l-0.69-1.65l-3.93,9.93c0.22,0.58,0.44,1.16,0.67,1.72L108.82,24.82z"/>
			<polygon id="XMLID_37_" class="st2" points="92.47,66.11 95.16,59.32 93.81,59.32 91.12,66.11 			"/>
		</g>
		<polygon id="XMLID_229_" points="104.36,39.53 104.36,39.53 103.67,37.81 		"/>
		<path id="XMLID_228_" class="st0" d="M103.67,37.81c-1.32-3.18-2.52-6.62-3.58-10.33h-0.26c-0.71,2.74-1.9,6.18-3.58,10.33
			l-8.34,20.66h8.95h15.15l-7.65-18.94v0L103.67,37.81z"/>
		<polygon id="XMLID_227_" class="st4" points="110.52,20.57 104.36,36.12 112.01,55.06 96.86,55.06 92.82,65.26 116.38,65.26 
			125.52,87.11 138.5,87.11 		"/>
		<path id="XMLID_226_" d="M87.91,58.47l8.34-20.66c1.68-4.15,2.87-7.59,3.58-10.33h0.26c1.06,3.71,2.25,7.15,3.58,10.33l0.69,1.72
			l6.16-15.56l-8.05-19.14h-4.64L61.82,90.52H74.4l9.14-21.85h9.29l4.04-10.2H87.91z"/>
	</g>
	<g id="XMLID_144_">
		<g id="XMLID_166_">
			<path id="XMLID_221_" class="st5" d="M15.36,133.84h-2.55l-1.79-4.29H4.58l-1.79,4.29H0.32l7.07-16.82H8.3L15.36,133.84z
				 M10.17,127.55l-1.64-4.06c-0.26-0.62-0.49-1.3-0.7-2.03H7.78c-0.14,0.54-0.37,1.21-0.7,2.03l-1.64,4.06H10.17z"/>
			<path id="XMLID_219_" class="st5" d="M32.6,133.84h-9.82v-16.58h2.52v14.43h7.3V133.84z"/>
			<path id="XMLID_217_" class="st5" d="M49.46,133.84h-9.85v-16.58h8.94v2.16h-6.42v5.02h5.38v2.16h-5.38v5.1h7.33V133.84z"/>
			<path id="XMLID_215_" class="st5" d="M69.48,133.84h-2.86l-2.7-4.37c-0.4-0.64-0.82-1.37-1.27-2.18h-0.05
				c-0.3,0.55-0.73,1.28-1.3,2.18l-2.75,4.37h-2.68l5.3-8.4l-5.07-8.19h2.86l2.57,4.16c0.54,0.87,0.93,1.55,1.2,2.05h0.05
				c0.29-0.55,0.69-1.24,1.2-2.05l2.6-4.16h2.68l-5.04,8.03L69.48,133.84z"/>
			<path id="XMLID_213_" class="st5" d="M79.93,133.84H77.4v-16.58h2.52V133.84z"/>
			<path id="XMLID_211_" class="st5" d="M98.61,129.16c0,1.53-0.49,2.74-1.48,3.64c-0.99,0.9-2.4,1.35-4.24,1.35
				c-1.73,0-3.16-0.37-4.29-1.12l-0.57-2.75c1.59,1.13,3.26,1.69,4.99,1.69c0.92,0,1.66-0.24,2.22-0.71
				c0.56-0.48,0.85-1.1,0.85-1.86c0-1.4-0.96-2.42-2.88-3.04c-3.02-0.97-4.52-2.61-4.52-4.91c0-1.25,0.43-2.29,1.3-3.12
				c0.95-0.93,2.27-1.4,3.95-1.4c1.54,0,2.75,0.32,3.61,0.96l-0.49,2.08c-0.88-0.64-1.96-0.96-3.22-0.96
				c-0.82,0-1.47,0.22-1.98,0.66c-0.5,0.44-0.75,0.97-0.75,1.6c0,1.11,0.89,1.97,2.68,2.57C97,124.94,98.61,126.72,98.61,129.16z"/>
			<path id="XMLID_208_" class="st6" d="M131.54,133.84h-2.55l-1.79-4.29h-6.45l-1.79,4.29h-2.47l7.07-16.82h0.91L131.54,133.84z
				 M126.34,127.55l-1.64-4.06c-0.26-0.62-0.49-1.3-0.7-2.03h-0.05c-0.14,0.54-0.37,1.21-0.7,2.03l-1.64,4.06H126.34z"/>
			<path id="XMLID_206_" class="st6" d="M141.86,133.84h-2.52v-16.58h2.52V133.84z"/>
			<path id="XMLID_204_" class="st6" d="M163.38,117.26l-6.58,16.82H156l-6.6-16.82h2.65l3.07,7.9c0.47,1.21,0.93,2.53,1.38,3.95
				h0.05c0.5-1.54,0.96-2.86,1.38-3.95l3.07-7.9H163.38z"/>
			<path id="XMLID_201_" class="st6" d="M183.52,133.84h-2.94l-5.22-7.28h-2.34v7.28h-2.5v-16.58h5.25c1.3,0,2.43,0.38,3.38,1.14
				c1.07,0.87,1.61,2.04,1.61,3.51c0,2.06-0.97,3.48-2.91,4.26L183.52,133.84z M178.19,121.91c0-0.82-0.29-1.45-0.88-1.9
				c-0.52-0.42-1.18-0.62-1.98-0.62h-2.31v5.04h2.31c0.8,0,1.46-0.2,1.98-0.6C177.9,123.37,178.19,122.73,178.19,121.91z"/>
			<path id="XMLID_182_" class="st6" d="M200,133.84h-9.85v-16.58h8.94v2.16h-6.42v5.02h5.38v2.16h-5.38v5.1H200V133.84z"/>
		</g>
		<path id="XMLID_145_" d="M108.68,127.74l3.41-8.44c0.68-1.69,1.17-3.1,1.46-4.22h0.11c0.43,1.51,0.92,2.92,1.46,4.22l0.28,0.7
			l2.52-6.35l-3.28-7.81h-1.89l-18.31,43.88h5.14l7.33-17.82h3.79l1.65-4.16H108.68z"/>
	</g>
</g>
</svg>
