<?xml version="1.0" encoding="utf-8"?>
<!-- Generator: Adobe Illustrator 19.0.0, SVG Export Plug-In . SVG Version: 6.00 Build 0)  -->
<svg version="1.1" id="Capa_1" xmlns="http://www.w3.org/2000/svg" xmlns:xlink="http://www.w3.org/1999/xlink" x="0px" y="0px"
	 width="60px" height="53.67px" viewBox="0 0 60 53.67" style="enable-background:new 0 0 60 53.67;" xml:space="preserve">
<style type="text/css">
	.st0{fill:none;}
	.st1{fill:#33B7C3;}
	.st2{fill:#E5007E;}
	.st3{fill:#941B80;}
	.st4{fill:#333333;}
	.st5{fill:#868686;}
	.st6{fill:#1D1D1B;}
</style>
<g id="XMLID_224_">
	<path id="XMLID_235_" class="st0" d="M31.59,13.88c-0.36-0.87-0.69-1.81-0.98-2.83h-0.07c-0.19,0.75-0.52,1.69-0.98,2.83
		l-2.29,5.66h2.45h4.15l-2.1-5.19v0L31.59,13.88z"/>
	<path id="XMLID_233_" class="st0" d="M30.65,14.58c-0.36-0.87-0.69-1.81-0.98-2.83H29.6c-0.19,0.75-0.52,1.69-0.98,2.83l-2.29,5.66
		h2.45h4.15l-2.1-5.19v0L30.65,14.58z"/>
	<g id="XMLID_5_">
		<path id="XMLID_6_" class="st0" d="M29.44,19.3l0.28-0.7h2.93l-1.63-4.03l-0.19,0.47l-0.19-0.47c-0.24-0.57-0.46-1.18-0.67-1.82
			c-0.13,0.35-0.27,0.72-0.43,1.12l-2.29,5.66h1.43l0.09-0.23H29.44z"/>
		<polygon id="XMLID_12_" class="st1" points="33.06,11.11 39.9,27.38 41.13,27.38 33.46,9.15 33.27,9.64 33.46,10.09 		"/>
		<polygon id="XMLID_13_" class="st1" points="29.44,19.3 32.94,19.3 32.66,18.6 29.72,18.6 		"/>
		<polygon id="XMLID_14_" class="st1" points="22.93,28.32 23.57,28.32 25.78,23.03 25.14,23.03 		"/>
		<polygon id="XMLID_15_" class="st1" points="32.34,10.34 32.53,9.86 32.87,10.66 33.27,9.64 31.26,4.85 29.99,4.85 29.7,5.55 
			30.33,5.55 		"/>
		<path id="XMLID_16_" class="st1" d="M29.55,13.88c0.16-0.4,0.3-0.77,0.43-1.12c-0.11-0.33-0.21-0.66-0.31-1.01H29.6
			c-0.19,0.75-0.52,1.69-0.98,2.83l-2.29,5.66h2.08l0.28-0.7h-1.43L29.55,13.88z"/>
		<polygon id="XMLID_17_" class="st1" points="27.96,22.33 28.62,22.33 28.71,22.1 28.05,22.1 		"/>
		<polygon id="XMLID_18_" class="st1" points="33.06,11.11 33.46,10.09 33.27,9.64 32.87,10.66 		"/>
		<polygon id="XMLID_19_" class="st2" points="28.79,19.3 28.7,19.54 29.35,19.54 29.44,19.3 		"/>
		<path id="XMLID_20_" class="st2" d="M31.59,13.88c-0.05-0.12-0.09-0.23-0.14-0.35l-0.42,1.05l1.63,4.03h1.22l-1.91-4.73
			l-0.19,0.47L31.59,13.88z"/>
		<polygon id="XMLID_21_" class="st2" points="37.57,27.38 35.07,21.4 28.98,21.4 28.71,22.1 34.14,22.1 36.64,28.08 40.19,28.08 
			39.9,27.38 		"/>
		<polygon id="XMLID_22_" class="st3" points="31.96,13.88 33.87,18.6 32.66,18.6 32.94,19.3 29.44,19.3 29.35,19.54 29.72,19.54 
			28.98,21.4 35.07,21.4 37.57,27.38 39.9,27.38 33.06,11.11 		"/>
		<polygon id="XMLID_23_" class="st3" points="28.62,21.4 29.35,19.54 28.7,19.54 28.42,20.24 28.79,20.24 28.05,22.1 28.71,22.1 
			28.98,21.4 		"/>
		<path id="XMLID_28_" class="st2" d="M31.45,13.53c0.05,0.12,0.09,0.24,0.14,0.35l0.19,0.47l0.19-0.47l-0.19-0.46l1.09-2.76
			l-0.34-0.8l-0.19,0.48l0.19,0.45L31.45,13.53z"/>
		<polygon id="XMLID_29_" class="st2" points="31.96,13.88 33.06,11.11 32.87,10.66 31.78,13.42 		"/>
		<polygon id="XMLID_30_" class="st2" points="29.35,19.54 28.62,21.4 28.98,21.4 29.72,19.54 		"/>
		<path id="XMLID_31_" class="st2" d="M30.84,15.05l0.19-0.47l-0.19-0.46l0.42-1.06c-0.24-0.63-0.46-1.3-0.66-2.01h-0.07
			c-0.13,0.49-0.31,1.06-0.55,1.71c0.21,0.64,0.43,1.25,0.67,1.82L30.84,15.05z"/>
		<polygon id="XMLID_32_" class="st2" points="25.78,23.03 27.68,23.03 27.96,22.33 26.07,22.33 		"/>
		<polygon id="XMLID_33_" class="st2" points="29.7,5.55 29.06,5.55 19.19,29.02 22.64,29.02 22.93,28.32 20.12,28.32 		"/>
		<path id="XMLID_34_" class="st3" d="M27.68,22.1l0.74-1.86h-2.08l2.29-5.66c0.46-1.14,0.79-2.08,0.98-2.83h0.07
			c0.1,0.35,0.2,0.68,0.31,1.01c0.24-0.65,0.42-1.22,0.55-1.71h0.07c0.2,0.7,0.42,1.37,0.66,2.01l1.08-2.72l-2.01-4.79H29.7
			l-9.57,22.77h2.81l2.21-5.29h0.64l0.29-0.7h1.89l0.09-0.23H27.68z"/>
		<path id="XMLID_35_" class="st2" d="M31.03,14.58l0.42-1.05c-0.06-0.16-0.12-0.31-0.18-0.47l-0.42,1.06L31.03,14.58z"/>
		<path id="XMLID_36_" class="st2" d="M32.53,10.79l-0.19-0.45l-1.08,2.72c0.06,0.16,0.12,0.32,0.18,0.47L32.53,10.79z"/>
		<polygon id="XMLID_37_" class="st2" points="28.05,22.1 28.79,20.24 28.42,20.24 27.68,22.1 		"/>
	</g>
	<polygon id="XMLID_229_" points="31.31,14.82 31.31,14.82 31.12,14.35 	"/>
	<path id="XMLID_228_" class="st0" d="M31.12,14.35c-0.36-0.87-0.69-1.81-0.98-2.83h-0.07c-0.19,0.75-0.52,1.69-0.98,2.83
		l-2.29,5.66h2.45h4.15l-2.1-5.19v0L31.12,14.35z"/>
	<polygon id="XMLID_227_" class="st4" points="33,9.62 31.31,13.88 33.4,19.07 29.25,19.07 28.15,21.87 34.6,21.87 37.11,27.85 
		40.66,27.85 	"/>
	<path id="XMLID_226_" d="M26.8,20.01l2.29-5.66c0.46-1.14,0.79-2.08,0.98-2.83h0.07c0.29,1.02,0.62,1.96,0.98,2.83l0.19,0.47
		L33,10.56l-2.2-5.24h-1.27l-9.87,23.47h3.45l2.5-5.99h2.54l1.11-2.79H26.8z"/>
</g>
<g id="XMLID_144_">
	<g id="XMLID_166_">
		<path id="XMLID_221_" class="st5" d="M6.93,45.65h-0.7l-0.49-1.17H3.98l-0.49,1.17H2.81l1.94-4.61h0.25L6.93,45.65z M5.51,43.93
			l-0.45-1.11c-0.07-0.17-0.14-0.36-0.19-0.56H4.85c-0.04,0.15-0.1,0.33-0.19,0.56l-0.45,1.11H5.51z"/>
		<path id="XMLID_219_" class="st5" d="M11.65,45.65H8.96v-4.54h0.69v3.95h2V45.65z"/>
		<path id="XMLID_217_" class="st5" d="M16.27,45.65h-2.7v-4.54h2.45v0.59h-1.76v1.37h1.47v0.59h-1.47v1.4h2.01V45.65z"/>
		<path id="XMLID_215_" class="st5" d="M21.75,45.65h-0.78l-0.74-1.2c-0.11-0.18-0.23-0.37-0.35-0.6h-0.01
			c-0.08,0.15-0.2,0.35-0.36,0.6l-0.75,1.2h-0.73l1.45-2.3l-1.39-2.24h0.78l0.71,1.14c0.15,0.24,0.26,0.43,0.33,0.56h0.01
			c0.08-0.15,0.19-0.34,0.33-0.56l0.71-1.14h0.73l-1.38,2.2L21.75,45.65z"/>
		<path id="XMLID_213_" class="st5" d="M24.62,45.65h-0.69v-4.54h0.69V45.65z"/>
		<path id="XMLID_211_" class="st5" d="M29.73,44.37c0,0.42-0.14,0.75-0.41,1c-0.27,0.25-0.66,0.37-1.16,0.37
			c-0.47,0-0.87-0.1-1.17-0.31l-0.16-0.75c0.44,0.31,0.89,0.46,1.37,0.46c0.25,0,0.45-0.06,0.61-0.2c0.15-0.13,0.23-0.3,0.23-0.51
			c0-0.38-0.26-0.66-0.79-0.83c-0.83-0.27-1.24-0.71-1.24-1.35c0-0.34,0.12-0.63,0.36-0.85c0.26-0.26,0.62-0.38,1.08-0.38
			c0.42,0,0.75,0.09,0.99,0.26l-0.14,0.57c-0.24-0.18-0.54-0.26-0.88-0.26c-0.22,0-0.4,0.06-0.54,0.18
			c-0.14,0.12-0.21,0.27-0.21,0.44c0,0.3,0.24,0.54,0.73,0.7C29.29,43.21,29.73,43.7,29.73,44.37z"/>
		<path id="XMLID_208_" class="st6" d="M38.75,45.65h-0.7l-0.49-1.17H35.8l-0.49,1.17h-0.68l1.94-4.61h0.25L38.75,45.65z
			 M37.33,43.93l-0.45-1.11c-0.07-0.17-0.14-0.36-0.19-0.56h-0.01c-0.04,0.15-0.1,0.33-0.19,0.56l-0.45,1.11H37.33z"/>
		<path id="XMLID_206_" class="st6" d="M41.58,45.65h-0.69v-4.54h0.69V45.65z"/>
		<path id="XMLID_204_" class="st6" d="M47.48,41.11l-1.8,4.61h-0.22l-1.81-4.61h0.73l0.84,2.16c0.13,0.33,0.25,0.69,0.38,1.08h0.01
			c0.14-0.42,0.26-0.78,0.38-1.08l0.84-2.16H47.48z"/>
		<path id="XMLID_201_" class="st6" d="M52.99,45.65h-0.8l-1.43-1.99h-0.64v1.99h-0.68v-4.54h1.44c0.36,0,0.66,0.1,0.93,0.31
			c0.29,0.24,0.44,0.56,0.44,0.96c0,0.56-0.27,0.95-0.8,1.17L52.99,45.65z M51.53,42.38c0-0.22-0.08-0.4-0.24-0.52
			c-0.14-0.11-0.32-0.17-0.54-0.17h-0.63v1.38h0.63c0.22,0,0.4-0.05,0.54-0.16C51.45,42.78,51.53,42.61,51.53,42.38z"/>
		<path id="XMLID_182_" class="st6" d="M57.51,45.65h-2.7v-4.54h2.45v0.59H55.5v1.37h1.47v0.59H55.5v1.4h2.01V45.65z"/>
	</g>
	<path id="XMLID_145_" d="M32.49,43.98l0.93-2.31c0.19-0.46,0.32-0.85,0.4-1.16h0.03c0.12,0.41,0.25,0.8,0.4,1.16l0.08,0.19
		l0.69-1.74l-0.9-2.14H33.6L28.59,50h1.41L32,45.12h1.04l0.45-1.14H32.49z"/>
</g>
</svg>
